<mxfile host="Electron" agent="Mozilla/5.0 (Macintosh; Intel Mac OS X 10_15_7) AppleWebKit/537.36 (KHTML, like Gecko) draw.io/25.0.2 Chrome/128.0.6613.186 Electron/32.2.5 Safari/537.36" version="25.0.2">
  <diagram name="Page-1" id="qSi1kfgGCvpuqHFb6oyk">
    <mxGraphModel dx="1380" dy="887" grid="1" gridSize="10" guides="1" tooltips="1" connect="1" arrows="1" fold="1" page="1" pageScale="1" pageWidth="827" pageHeight="1169" math="0" shadow="0">
      <root>
        <mxCell id="0" />
        <mxCell id="1" parent="0" />
        <mxCell id="hvbtrYY9sSFae_utl0OA-50" value="" style="rounded=0;whiteSpace=wrap;html=1;fillColor=#fff2cc;strokeColor=#d6b656;" vertex="1" parent="1">
          <mxGeometry x="50" y="200" width="723" height="740" as="geometry" />
        </mxCell>
        <mxCell id="OZvwDvS8y1LQUS1a6cP2-2" value="" style="rounded=0;whiteSpace=wrap;html=1;" parent="1" vertex="1">
          <mxGeometry x="249" y="240" width="200" height="230" as="geometry" />
        </mxCell>
        <mxCell id="OZvwDvS8y1LQUS1a6cP2-4" value="" style="rounded=0;whiteSpace=wrap;html=1;" parent="1" vertex="1">
          <mxGeometry x="489" y="240" width="200" height="230" as="geometry" />
        </mxCell>
        <mxCell id="OZvwDvS8y1LQUS1a6cP2-9" value="" style="rounded=0;whiteSpace=wrap;html=1;" parent="1" vertex="1">
          <mxGeometry x="264" y="255" width="170" height="25" as="geometry" />
        </mxCell>
        <mxCell id="OZvwDvS8y1LQUS1a6cP2-10" value="" style="rounded=0;whiteSpace=wrap;html=1;" parent="1" vertex="1">
          <mxGeometry x="264" y="290" width="170" height="20" as="geometry" />
        </mxCell>
        <mxCell id="OZvwDvS8y1LQUS1a6cP2-11" value="Login" style="rounded=0;whiteSpace=wrap;html=1;" parent="1" vertex="1">
          <mxGeometry x="264" y="320" width="55" height="20" as="geometry" />
        </mxCell>
        <mxCell id="OZvwDvS8y1LQUS1a6cP2-12" value="Login" style="text;html=1;align=center;verticalAlign=middle;whiteSpace=wrap;rounded=0;fontStyle=1;fontSize=17;" parent="1" vertex="1">
          <mxGeometry x="249" y="480" width="200" height="30" as="geometry" />
        </mxCell>
        <mxCell id="OZvwDvS8y1LQUS1a6cP2-13" value="Register" style="text;html=1;align=center;verticalAlign=middle;whiteSpace=wrap;rounded=0;fontStyle=1;fontSize=17;" parent="1" vertex="1">
          <mxGeometry x="489" y="480" width="200" height="30" as="geometry" />
        </mxCell>
        <mxCell id="hvbtrYY9sSFae_utl0OA-1" value="" style="rounded=0;whiteSpace=wrap;html=1;" vertex="1" parent="1">
          <mxGeometry x="504" y="255" width="170" height="25" as="geometry" />
        </mxCell>
        <mxCell id="hvbtrYY9sSFae_utl0OA-2" value="" style="rounded=0;whiteSpace=wrap;html=1;" vertex="1" parent="1">
          <mxGeometry x="504" y="290" width="170" height="20" as="geometry" />
        </mxCell>
        <mxCell id="hvbtrYY9sSFae_utl0OA-3" value="Register" style="rounded=0;whiteSpace=wrap;html=1;" vertex="1" parent="1">
          <mxGeometry x="504" y="410" width="55" height="20" as="geometry" />
        </mxCell>
        <mxCell id="hvbtrYY9sSFae_utl0OA-4" value="" style="rounded=0;whiteSpace=wrap;html=1;" vertex="1" parent="1">
          <mxGeometry x="504" y="320" width="170" height="20" as="geometry" />
        </mxCell>
        <mxCell id="hvbtrYY9sSFae_utl0OA-5" value="" style="rounded=0;whiteSpace=wrap;html=1;" vertex="1" parent="1">
          <mxGeometry x="504" y="350" width="170" height="20" as="geometry" />
        </mxCell>
        <mxCell id="hvbtrYY9sSFae_utl0OA-6" value="" style="rounded=0;whiteSpace=wrap;html=1;" vertex="1" parent="1">
          <mxGeometry x="504" y="380" width="170" height="20" as="geometry" />
        </mxCell>
        <mxCell id="hvbtrYY9sSFae_utl0OA-7" value="" style="rounded=0;whiteSpace=wrap;html=1;" vertex="1" parent="1">
          <mxGeometry x="99" y="640" width="200" height="230" as="geometry" />
        </mxCell>
        <mxCell id="hvbtrYY9sSFae_utl0OA-8" value="Products" style="text;html=1;align=center;verticalAlign=middle;whiteSpace=wrap;rounded=0;fontStyle=1;fontSize=17;" vertex="1" parent="1">
          <mxGeometry x="99" y="880" width="200" height="30" as="geometry" />
        </mxCell>
        <mxCell id="hvbtrYY9sSFae_utl0OA-9" value="" style="rounded=0;whiteSpace=wrap;html=1;" vertex="1" parent="1">
          <mxGeometry x="114" y="660" width="75" height="80" as="geometry" />
        </mxCell>
        <mxCell id="hvbtrYY9sSFae_utl0OA-10" value="" style="rounded=0;whiteSpace=wrap;html=1;" vertex="1" parent="1">
          <mxGeometry x="209" y="660" width="75" height="80" as="geometry" />
        </mxCell>
        <mxCell id="hvbtrYY9sSFae_utl0OA-11" value="" style="rounded=0;whiteSpace=wrap;html=1;" vertex="1" parent="1">
          <mxGeometry x="114" y="750" width="75" height="80" as="geometry" />
        </mxCell>
        <mxCell id="hvbtrYY9sSFae_utl0OA-12" value="" style="rounded=0;whiteSpace=wrap;html=1;" vertex="1" parent="1">
          <mxGeometry x="209" y="750" width="75" height="80" as="geometry" />
        </mxCell>
        <mxCell id="hvbtrYY9sSFae_utl0OA-13" value="" style="rounded=0;whiteSpace=wrap;html=1;" vertex="1" parent="1">
          <mxGeometry x="99" y="610" width="200" height="30" as="geometry" />
        </mxCell>
        <mxCell id="hvbtrYY9sSFae_utl0OA-14" value="Products" style="text;html=1;align=center;verticalAlign=middle;whiteSpace=wrap;rounded=0;fontStyle=1" vertex="1" parent="1">
          <mxGeometry x="99" y="615" width="60" height="20" as="geometry" />
        </mxCell>
        <mxCell id="hvbtrYY9sSFae_utl0OA-15" value="Add Product" style="text;html=1;align=center;verticalAlign=middle;whiteSpace=wrap;rounded=0;fontSize=10;" vertex="1" parent="1">
          <mxGeometry x="159" y="615" width="60" height="20" as="geometry" />
        </mxCell>
        <mxCell id="hvbtrYY9sSFae_utl0OA-16" value="Cart" style="text;html=1;align=center;verticalAlign=middle;whiteSpace=wrap;rounded=0;" vertex="1" parent="1">
          <mxGeometry x="219" y="615" width="30" height="20" as="geometry" />
        </mxCell>
        <mxCell id="hvbtrYY9sSFae_utl0OA-17" value="Logout" style="text;html=1;align=center;verticalAlign=middle;whiteSpace=wrap;rounded=0;" vertex="1" parent="1">
          <mxGeometry x="259" y="615" width="30" height="20" as="geometry" />
        </mxCell>
        <mxCell id="hvbtrYY9sSFae_utl0OA-18" value="" style="rounded=0;whiteSpace=wrap;html=1;" vertex="1" parent="1">
          <mxGeometry x="309" y="640" width="200" height="230" as="geometry" />
        </mxCell>
        <mxCell id="hvbtrYY9sSFae_utl0OA-19" value="AddProduct" style="text;html=1;align=center;verticalAlign=middle;whiteSpace=wrap;rounded=0;fontStyle=1;fontSize=17;" vertex="1" parent="1">
          <mxGeometry x="309" y="880" width="200" height="30" as="geometry" />
        </mxCell>
        <mxCell id="hvbtrYY9sSFae_utl0OA-24" value="" style="rounded=0;whiteSpace=wrap;html=1;" vertex="1" parent="1">
          <mxGeometry x="309" y="610" width="200" height="30" as="geometry" />
        </mxCell>
        <mxCell id="hvbtrYY9sSFae_utl0OA-25" value="Products" style="text;html=1;align=center;verticalAlign=middle;whiteSpace=wrap;rounded=0;" vertex="1" parent="1">
          <mxGeometry x="309" y="615" width="60" height="20" as="geometry" />
        </mxCell>
        <mxCell id="hvbtrYY9sSFae_utl0OA-26" value="Add Product" style="text;html=1;align=center;verticalAlign=middle;whiteSpace=wrap;rounded=0;fontSize=10;fontStyle=1" vertex="1" parent="1">
          <mxGeometry x="363" y="615" width="70" height="20" as="geometry" />
        </mxCell>
        <mxCell id="hvbtrYY9sSFae_utl0OA-27" value="Cart" style="text;html=1;align=center;verticalAlign=middle;whiteSpace=wrap;rounded=0;" vertex="1" parent="1">
          <mxGeometry x="429" y="615" width="30" height="20" as="geometry" />
        </mxCell>
        <mxCell id="hvbtrYY9sSFae_utl0OA-28" value="Logout" style="text;html=1;align=center;verticalAlign=middle;whiteSpace=wrap;rounded=0;" vertex="1" parent="1">
          <mxGeometry x="469" y="615" width="30" height="20" as="geometry" />
        </mxCell>
        <mxCell id="hvbtrYY9sSFae_utl0OA-29" value="" style="rounded=0;whiteSpace=wrap;html=1;" vertex="1" parent="1">
          <mxGeometry x="324" y="650" width="170" height="20" as="geometry" />
        </mxCell>
        <mxCell id="hvbtrYY9sSFae_utl0OA-30" value="Save" style="rounded=0;whiteSpace=wrap;html=1;" vertex="1" parent="1">
          <mxGeometry x="324" y="745" width="55" height="20" as="geometry" />
        </mxCell>
        <mxCell id="hvbtrYY9sSFae_utl0OA-31" value="" style="rounded=0;whiteSpace=wrap;html=1;" vertex="1" parent="1">
          <mxGeometry x="324" y="680" width="170" height="20" as="geometry" />
        </mxCell>
        <mxCell id="hvbtrYY9sSFae_utl0OA-32" value="" style="rounded=0;whiteSpace=wrap;html=1;" vertex="1" parent="1">
          <mxGeometry x="324" y="710" width="170" height="20" as="geometry" />
        </mxCell>
        <mxCell id="hvbtrYY9sSFae_utl0OA-37" value="" style="rounded=0;whiteSpace=wrap;html=1;" vertex="1" parent="1">
          <mxGeometry x="529" y="640" width="200" height="230" as="geometry" />
        </mxCell>
        <mxCell id="hvbtrYY9sSFae_utl0OA-38" value="Cart" style="text;html=1;align=center;verticalAlign=middle;whiteSpace=wrap;rounded=0;fontStyle=1;fontSize=17;" vertex="1" parent="1">
          <mxGeometry x="529" y="880" width="200" height="30" as="geometry" />
        </mxCell>
        <mxCell id="hvbtrYY9sSFae_utl0OA-39" value="" style="rounded=0;whiteSpace=wrap;html=1;" vertex="1" parent="1">
          <mxGeometry x="544" y="660" width="75" height="80" as="geometry" />
        </mxCell>
        <mxCell id="hvbtrYY9sSFae_utl0OA-40" value="" style="rounded=0;whiteSpace=wrap;html=1;" vertex="1" parent="1">
          <mxGeometry x="639" y="660" width="75" height="80" as="geometry" />
        </mxCell>
        <mxCell id="hvbtrYY9sSFae_utl0OA-41" value="" style="rounded=0;whiteSpace=wrap;html=1;" vertex="1" parent="1">
          <mxGeometry x="544" y="750" width="75" height="80" as="geometry" />
        </mxCell>
        <mxCell id="hvbtrYY9sSFae_utl0OA-42" value="" style="rounded=0;whiteSpace=wrap;html=1;" vertex="1" parent="1">
          <mxGeometry x="639" y="750" width="75" height="80" as="geometry" />
        </mxCell>
        <mxCell id="hvbtrYY9sSFae_utl0OA-43" value="" style="rounded=0;whiteSpace=wrap;html=1;" vertex="1" parent="1">
          <mxGeometry x="529" y="610" width="200" height="30" as="geometry" />
        </mxCell>
        <mxCell id="hvbtrYY9sSFae_utl0OA-44" value="Products" style="text;html=1;align=center;verticalAlign=middle;whiteSpace=wrap;rounded=0;fontStyle=0" vertex="1" parent="1">
          <mxGeometry x="529" y="615" width="60" height="20" as="geometry" />
        </mxCell>
        <mxCell id="hvbtrYY9sSFae_utl0OA-45" value="Add Product" style="text;html=1;align=center;verticalAlign=middle;whiteSpace=wrap;rounded=0;fontSize=10;" vertex="1" parent="1">
          <mxGeometry x="589" y="615" width="60" height="20" as="geometry" />
        </mxCell>
        <mxCell id="hvbtrYY9sSFae_utl0OA-46" value="Cart" style="text;html=1;align=center;verticalAlign=middle;whiteSpace=wrap;rounded=0;fontStyle=1" vertex="1" parent="1">
          <mxGeometry x="649" y="615" width="30" height="20" as="geometry" />
        </mxCell>
        <mxCell id="hvbtrYY9sSFae_utl0OA-47" value="Logout" style="text;html=1;align=center;verticalAlign=middle;whiteSpace=wrap;rounded=0;" vertex="1" parent="1">
          <mxGeometry x="689" y="615" width="30" height="20" as="geometry" />
        </mxCell>
        <mxCell id="hvbtrYY9sSFae_utl0OA-48" style="edgeStyle=orthogonalEdgeStyle;rounded=0;orthogonalLoop=1;jettySize=auto;html=1;entryX=0.608;entryY=-0.048;entryDx=0;entryDy=0;entryPerimeter=0;" edge="1" parent="1" source="OZvwDvS8y1LQUS1a6cP2-11" target="hvbtrYY9sSFae_utl0OA-15">
          <mxGeometry relative="1" as="geometry">
            <Array as="points">
              <mxPoint x="195" y="330" />
              <mxPoint x="195" y="478" />
            </Array>
          </mxGeometry>
        </mxCell>
        <mxCell id="hvbtrYY9sSFae_utl0OA-51" value="App" style="text;html=1;align=center;verticalAlign=middle;whiteSpace=wrap;rounded=0;fontStyle=1;fontSize=17;" vertex="1" parent="1">
          <mxGeometry x="51.5" y="950" width="718.5" height="30" as="geometry" />
        </mxCell>
      </root>
    </mxGraphModel>
  </diagram>
</mxfile>
